<svg xmlns="http://www.w3.org/2000/svg" width="48" height="48" fill="none" viewBox="0 0 48 48"><path stroke="#e4cda4" stroke-linecap="round" stroke-linejoin="round" stroke-width="2" d="M6.591 41.205 19.32 28.477m16.028-5.66-3.81 11.43a1.2 1.2 0 0 1-.796.772L7.385 41.96a1.2 1.2 0 0 1-1.48-1.53l7.584-22.748a1.2 1.2 0 0 1 .68-.73l10.774-4.436a1.2 1.2 0 0 1 1.306.26l8.808 8.812a1.2 1.2 0 0 1 .29 1.228"/><path stroke="#e4cda4" stroke-linecap="round" stroke-linejoin="round" stroke-width="2" d="m35.583 22.113 5.656-5.658a4 4 0 0 0 0-5.656l-4.24-4.244a4 4 0 0 0-5.658 0l-5.656 5.658m-2.124 12.02a3.002 3.002 0 1 0-4.245 4.246 3.002 3.002 0 0 0 4.245-4.246"/></svg>