<svg xmlns="http://www.w3.org/2000/svg" width="32" height="32" fill="none" viewBox="0 0 32 32"><path stroke="#e4cda4" stroke-linecap="round" stroke-linejoin="round" stroke-width="1.5" d="M26.666 2.667S24 8.917 24 14.095c0 1.658.568 3.045 1.333 4.426.88 1.591 2.023 3.174 2.861 5.151.666 1.57 1.14 3.39 1.14 5.661m-24-26.666S8 8.917 8 14.095c0 1.658-.568 3.045-1.334 4.426-.88 1.591-2.022 3.174-2.861 5.151a14.1 14.1 0 0 0-1.139 5.661"/><path stroke="#e4cda4" stroke-linecap="round" stroke-width="1.5" d="M16 1.333c0 3.334-2.585 9.334-8 9.334M24 10.667C24 16 16.666 21.333 5.333 21.333"/><path stroke="#e4cda4" stroke-linecap="round" stroke-width="1.5" d="M24 10.667c0 5.333-2 16.666-20.667 16M16 1.333c0 3.334 2.585 9.334 8 9.334"/><circle cx="12" cy="10.667" r=".75" fill="#e4cda4" stroke="#e4cda4" stroke-width="1.167"/><circle cx="16" cy="6.667" r=".75" fill="#e4cda4" stroke="#e4cda4" stroke-width="1.167"/><circle cx="22.666" cy="21.333" r=".75" fill="#e4cda4" stroke="#e4cda4" stroke-width="1.167"/><circle cx="14.666" cy="26.667" r=".75" fill="#e4cda4" stroke="#e4cda4" stroke-width="1.167"/><circle cx="8" cy="28" r=".75" fill="#e4cda4" stroke="#e4cda4" stroke-width="1.167"/><circle cx="14.666" cy="21.333" r=".75" fill="#e4cda4" stroke="#e4cda4" stroke-width="1.167"/><circle cx="8" cy="22.667" r=".75" fill="#e4cda4" stroke="#e4cda4" stroke-width="1.167"/><circle cx="20" cy="10.667" r=".75" fill="#e4cda4" stroke="#e4cda4" stroke-width="1.167"/></svg>