<svg xmlns="http://www.w3.org/2000/svg" width="426" height="98" fill="none" viewBox="0 0 426 98"><path fill="#e4cda4" d="M93.368 35.96q-2.559 0-4.08-1.52-1.48-1.52-1.48-4.48v-4.68q0-1.92-.96-3.2-.92-1.32-2.88-1.32h-2.48v12q0 .52.2.76.24.2.76.2h2.8V35h-13.44v-1.28h2.8q.56 0 .76-.2.2-.24.2-.76v-24q0-.56-.2-.76t-.76-.2h-2.8V6.52h13.44V7.8h-2.8q-.52 0-.76.2-.2.2-.2.76v10.56h2.76q2.2 0 2.96-1.68.8-1.72.8-5.52 0-2.72 1.08-4.16 1.44-1.92 3.76-1.92 1.24 0 2.12.68a4.16 4.16 0 0 1 1.4 1.64q.48.96.48 1.92 0 1.44-.6 2.44-.56.96-1.44 1.44-.84.48-1.64.48-1.2 0-2-.68a2.33 2.33 0 0 1-.76-1.76q0-1.4 1.28-2.48.68-.56.68-1.16t-.72-.6q-1 0-1.68 1.16t-.68 3.72v1.28q0 3.96-1.96 5.6v.2q3.12.76 4.76 2.48 1.64 1.68 1.64 5.2v4.44q0 1.68 1.12 1.68 1.04 0 1.52-1.72t.48-4.2h1.28q0 3.88-1.04 6.04-1.04 2.12-3.72 2.12m15.853-.48q-2.48 0-4.44-1.32-1.92-1.36-3-3.64t-1.08-5q0-2.8 1.08-5.08t2.92-3.56q1.881-1.32 4.08-1.32 2.44 0 4.2 1.76 1.76 1.72 2.32 4.56.28 1.28.28 4h-9.76q0 1.92.08 3.04.081 1.08.36 2.12.36 1.48 1.36 2.36 1.041.88 2.4.88 1.96 0 3.16-1.72t1.44-4.04h1.04q-.24 2.76-1.8 4.88-1.56 2.08-4.64 2.08m1.72-10.72q0-4.2-.56-6.2-.52-2.04-2-2.04t-2.04 2.04q-.52 2-.52 6.2zm10.587 10.72q-1.52 0-2.48-1a3.37 3.37 0 0 1-.92-2.36q0-1.24.8-2.08.84-.88 1.96-.88 1.08 0 1.6.64.52.6.52 1.28 0 .72-.6 1.4-.16.2-.28.4a.9.9 0 0 0-.08.4q0 .32.16.48.2.12.44.12.8 0 1.48-1.48.72-1.52.92-4.96l.32-5q.16-2.6.16-3.88 0-.68-.24-1.12-.2-.44-.88-.44h-1.48v-.96h14V17h-1.52q-.36 0-.52.16-.12.12-.12.48V33.4q0 .36.12.52.16.12.52.12h1.52V35h-8.96v-.96h1.52q.36 0 .48-.12.16-.16.16-.52V17.64q0-.36-.16-.48-.12-.16-.48-.16h-1q-.96 0-1.4.72-.44.68-.52 2.16l-.52 7.88q-.4 7.72-4.52 7.72m18.619-1.44h1.52q.36 0 .48-.12.16-.16.16-.52V17.64q0-.36-.16-.48-.12-.16-.48-.16h-1.52v-.96h8.88V17h-1.36q-.4 0-.56.2t-.16.72v6.76h3.84q2.48 0 4.12 1.48t1.64 3.64q0 1.44-.76 2.64-.72 1.16-2.04 1.88-1.32.68-2.96.68h-10.64zm8.96 0q1.24 0 1.88-1.2.68-1.2.68-3.04t-.64-3-1.92-1.16h-2.16v7.76q0 .36.12.52.16.12.52.12zm13.373 0h2.24q.36 0 .48-.12.16-.16.16-.52V17.64q0-.4-.16-.52-.12-.12-.48-.12-.88 0-1.72 1a8.4 8.4 0 0 0-1.32 2.24 20 20 0 0 0-.84 2.4q-.24 1.04-.28 1.32h-1.12l.24-7.92h16l.24 7.92h-1.12q-.04-.28-.32-1.32-.24-1.04-.8-2.4a7.9 7.9 0 0 0-1.36-2.24q-.8-1-1.68-1-.36 0-.52.12-.12.12-.12.52V33.4q0 .36.12.52.16.12.52.12h2.24V35h-10.4zm25.335 1.44q-2.48 0-4.44-1.32-1.92-1.36-3-3.64t-1.08-5 1.04-5q1.08-2.28 3-3.6 1.96-1.36 4.4-1.36 1.92 0 3.2.8 1.32.8 1.96 2.04t.64 2.56q0 1.44-.88 2.52-.88 1.04-2.12 1.04-.92 0-1.52-.52-.6-.56-.6-1.48 0-1.08 1.28-2.12.96-.8.96-1.64t-.64-1.52q-.6-.72-1.96-.72-1.88 0-2.76 2.4-.88 2.36-.88 6.6 0 2.12.08 3.32.08 1.16.36 2.2.36 1.48 1.36 2.36 1.04.88 2.4.88 1.96 0 3.16-1.72t1.44-4.04h1.04q-.24 2.76-1.8 4.88-1.56 2.08-4.64 2.08m24.871 0q-1.96 0-3.12-1-1.16-1.04-1.16-3v-3.16q0-1.12-.52-1.76-.52-.68-1.32-.68h-2.08v7.52q0 .36.12.52.16.12.52.12h1.28V35h-8.72v-.96h1.52q.36 0 .48-.12.16-.16.16-.52V17.64q0-.36-.16-.48-.12-.16-.48-.16h-1.52v-.96h8.72V17h-1.28q-.36 0-.52.16-.12.12-.12.48v7.12h2.52q.84 0 1.24-.64t.4-1.68v-2.72q0-2 1.04-3.08 1.08-1.08 2.56-1.08 1.44 0 2.28.84t.84 2.24a2.5 2.5 0 0 1-.8 1.88q-.76.72-1.68.72-.88 0-1.48-.48-.6-.52-.6-1.4 0-.52.4-1.12.32-.44.32-.72 0-.36-.4-.36-.56 0-.96.64-.4.6-.4 1.88v2.76q0 .92-.24 1.52-.24.56-.84.96v.2q2.08.28 3.2 1.44 1.16 1.16 1.16 3.56v2.6q0 1.08.88 1.08.72 0 1.04-1.08.32-1.12.32-2.76h1.04q0 2.64-.8 4.08-.76 1.44-2.84 1.44m6.055-1.44h1.52q.36 0 .48-.12.16-.16.16-.52V17.64q0-.36-.16-.48-.12-.16-.48-.16h-1.52v-.96h8.72V17h-1.28q-.36 0-.52.16-.12.12-.12.48v12.64l6.08-11.92v-.72q0-.36-.16-.48-.12-.16-.48-.16h-1.28v-.96h8.72V17h-1.52q-.36 0-.52.16-.12.12-.12.48V33.4q0 .36.12.52.16.12.52.12h1.52V35h-8.72v-.96h1.28q.36 0 .48-.12.16-.16.16-.52V20.76l-6.08 11.92v.72q0 .36.12.52.16.12.52.12h1.28V35h-8.72zm31.73 1.44q-2.48 0-4.44-1.32-1.92-1.36-3-3.64t-1.08-5q0-2.8 1.08-5.08t2.92-3.56q1.881-1.32 4.08-1.32 2.44 0 4.2 1.76 1.76 1.72 2.32 4.56.28 1.28.28 4h-9.76q0 1.92.08 3.04.081 1.08.36 2.12.36 1.48 1.36 2.36 1.041.88 2.4.88 1.96 0 3.16-1.72t1.44-4.04h1.04q-.24 2.76-1.8 4.88-1.56 2.08-4.64 2.08m1.72-10.72q0-4.2-.56-6.2-.52-2.04-2-2.04t-2.04 2.04q-.52 2-.52 6.2zm23.958 19.76q-1.64 0-2.64-1.04-1-1-1-2.6 0-1.32.84-2.32t2.12-1q.96 0 1.56.56.64.6.64 1.44 0 .52-.24.96a2.1 2.1 0 0 1-.52.72q-.56.48-.56 1.04 0 .36.2.64.24.32.72.32.68 0 1.12-.84.48-.84.88-2.12l1.32-4.4-6.92-16.56q-.56-1.32-1.04-1.8-.44-.52-1.44-.52h-.6v-.96h9.8V17h-1.16q-.36 0-.68.28-.28.28-.28.76 0 .44.28 1.12l4.12 9.88 2.6-8.76q.28-1.12.28-1.76 0-.6-.32-1.04-.32-.48-.92-.48h-1.04v-.96h6.6V17h-.88q-.72 0-1.4.64-.64.6-1 1.84l-6.08 20.2q-1.4 4.84-4.36 4.84m22.777-9.04q-2.36 0-4.12-1.2-1.72-1.24-1.72-3.52 0-1.2.76-2.04.8-.84 1.88-.84.92 0 1.52.56.64.56.64 1.32 0 .6-.24 1.04-.24.4-.84.76-.84.56-.84 1.12 0 .96.84 1.4.88.44 2.28.44 1.36 0 2.08-1.24.72-1.28.72-3.6 0-1.76-.6-2.88-.56-1.16-1.92-1.16h-3.64v-1.12h3.6q1.36 0 1.76-1.12t.4-2.96q0-3.92-2.28-3.92-1.68 0-2.96 2.04-1.24 2-1.72 4.64h-.96v-7.4h.96l.32.96q.16.44.48.44.24 0 .76-.4 1.72-1.24 3.8-1.24 2.92 0 4.56 1.36 1.68 1.36 1.68 3.44 0 1.52-1.2 2.76-1.2 1.2-3.04 1.64V25q5.12 1.04 5.12 5.12 0 2.44-2.16 3.92-2.12 1.44-5.92 1.44m13.384 0q-1.52 0-2.48-1a3.37 3.37 0 0 1-.92-2.36q0-1.24.8-2.08.84-.88 1.96-.88 1.08 0 1.6.64.52.6.52 1.28 0 .72-.6 1.4-.16.2-.28.4a.9.9 0 0 0-.08.4q0 .32.16.48.2.12.44.12.8 0 1.48-1.48.72-1.52.92-4.96l.32-5q.16-2.6.16-3.88 0-.68-.24-1.12-.2-.44-.88-.44h-1.48v-.96h14V17h-1.52q-.36 0-.52.16-.12.12-.12.48V33.4q0 .36.12.52.16.12.52.12h1.52V35h-8.96v-.96h1.52q.36 0 .48-.12.16-.16.16-.52V17.64q0-.36-.16-.48-.12-.16-.48-.16h-1q-.96 0-1.4.72-.44.68-.52 2.16l-.52 7.88q-.4 7.72-4.52 7.72m18.618-1.44h1.52q.36 0 .48-.12.16-.16.16-.52V17.64q0-.36-.16-.48-.12-.16-.48-.16h-1.52v-.96h8.88V17h-1.36q-.4 0-.56.2t-.16.72v6.76h3.44q2.48 0 4.12 1.48t1.64 3.64q0 1.44-.76 2.64-.72 1.16-2.04 1.88-1.32.68-2.96.68h-10.24zm15.44 0h1.28q.36 0 .48-.12.16-.16.16-.52V17.64q0-.36-.16-.48-.12-.16-.48-.16h-1.28v-.96h8.72V17h-1.52q-.36 0-.52.16-.12.12-.12.48V33.4q0 .36.12.52.16.12.52.12h1.52V35h-8.72zm-6.88 0q1.24 0 1.88-1.2.68-1.2.68-3.04t-.64-3-1.92-1.16h-1.76v7.76q0 .36.12.52.16.12.52.12z"/></svg>