<svg xmlns="http://www.w3.org/2000/svg" width="426" height="59" fill="none" viewBox="0 0 426 59"><path fill="#e4cda4" d="M84.053 42.864q-4.464 0-7.632-2.496-3.12-2.544-4.704-6.624-1.584-4.128-1.584-8.832 0-4.848 1.632-8.928 1.632-4.128 4.656-6.576 3.072-2.448 7.152-2.448 1.776 0 3.264.624 1.536.576 3.216 1.728 1.104.72 1.632.72.384 0 .624-.192.24-.24.432-.72l.864-1.776h1.584V22.08h-1.536q-1.104-6.192-3.84-9.888-2.688-3.696-6.24-3.696-2.256 0-3.792 2.208-1.488 2.208-1.488 7.008v14.4q0 4.752 1.68 7.008 1.728 2.208 4.08 2.208 5.712 0 8.496-5.232 1.392-2.544 1.872-7.296h1.728a25 25 0 0 1-.672 4.272q-.48 2.112-1.296 3.696-1.488 2.88-4.08 4.512-2.544 1.584-6.048 1.584m15.656-2.016h2.688q.432 0 .576-.144.192-.192.192-.624V9.744q0-.432-.192-.576-.144-.192-.576-.192h-2.688V7.824h9.024V23.52l.24.048q.96-2.256 2.448-3.552 1.536-1.344 3.504-1.344 1.2 0 2.064.288.864.24 1.632.768 1.2.864 1.872 2.4.72 1.536.72 3.168V40.08q0 .432.144.624.192.144.624.144h1.824V42h-10.464v-1.152h1.536q.432 0 .576-.144.192-.192.192-.624V23.904q0-3.696-2.208-3.696-1.008 0-2.112 1.344t-1.872 3.552q-.72 2.208-.72 4.704V40.08q0 .432.144.624.192.144.624.144h1.536V42H99.709zm34.155 1.728q-2.64 0-4.512-1.296-1.824-1.296-1.824-4.368 0-3.12 2.256-4.896 2.304-1.824 5.808-3.024l3.552-1.248V24.48q0-2.448-1.008-3.552t-2.592-1.104q-1.344 0-2.352.624-.96.576-.96 1.632 0 .288.144.72.192.384.624.672.72.432 1.008.912.336.48.336 1.248 0 1.152-.864 1.824a2.93 2.93 0 0 1-1.824.624 3.13 3.13 0 0 1-2.16-.816q-.864-.864-.864-2.448 0-1.824 1.104-3.216a6.8 6.8 0 0 1 2.832-2.16q1.728-.768 3.504-.768 3.456 0 6.048 1.872 2.592 1.824 2.592 5.856v12.144q0 1.728.96 1.728.864 0 1.296-1.44t.432-3.312h1.344q0 3.504-1.056 5.136-.528.864-1.488 1.392t-2.208.528q-1.968 0-2.976-.576-1.008-.624-1.68-2.016h-.096q-1.92 2.592-5.376 2.592m2.352-1.92q1.872 0 2.928-2.112V29.04l-2.688.96q-1.584.576-2.352 2.208-.72 1.584-.72 4.272 0 2.352.864 3.264t1.968.912m15.399.192h1.824q.432 0 .576-.144.192-.192.192-.624V21.168q0-.432-.192-.576-.144-.192-.576-.192h-1.824v-1.152h8.16v4.272l.24.048q.96-2.256 2.448-3.552 1.536-1.344 3.504-1.344 1.2 0 2.064.288.864.24 1.632.768 1.2.864 1.872 2.4.72 1.536.72 3.168V40.08q0 .432.144.624.192.144.624.144h1.824V42h-10.464v-1.152h1.536q.432 0 .576-.144.192-.192.192-.624V23.904q0-3.696-2.208-3.696-1.008 0-2.112 1.344t-1.872 3.552q-.72 2.208-.72 4.704V40.08q0 .432.144.624.192.144.624.144h1.536V42h-10.464zm37.28 1.728q-2.976 0-5.328-1.584-2.304-1.632-3.6-4.368t-1.296-6q0-3.36 1.296-6.096t3.504-4.272q2.256-1.584 4.896-1.584 2.928 0 5.04 2.112 2.112 2.064 2.784 5.472.336 1.536.336 4.8h-11.712q0 2.304.096 3.648.096 1.296.432 2.544.432 1.776 1.632 2.832a4.33 4.33 0 0 0 2.88 1.056q2.352 0 3.792-2.064t1.728-4.848h1.248q-.288 3.312-2.16 5.856-1.872 2.496-5.568 2.496m2.064-12.864q0-5.04-.672-7.44-.624-2.448-2.4-2.448t-2.448 2.448q-.624 2.4-.624 7.44zm9.297 11.136h2.688q.432 0 .576-.144.192-.192.192-.624V9.744q0-.432-.192-.576-.144-.192-.576-.192h-2.688V7.824h9.024V40.08q0 .432.144.624.192.144.624.144h2.688V42h-12.48zm29.371 10.656L243.163 6.96h3.264l-13.536 44.544zm35.638-11.04h3.36q.672 0 .912-.24.24-.288.24-.912v-28.8q0-.672-.24-.912t-.912-.24h-3.36V7.824h17.856q3.984 0 7.296 2.16 3.312 2.112 5.232 5.952 1.968 3.792 1.968 8.688t-1.968 8.88q-1.92 3.984-5.28 6.24Q287.057 42 283.121 42h-17.856zm17.04 0q3.072 0 5.088-2.112 2.064-2.16 2.064-6.24v-14.4q0-4.08-2.064-6.192-2.016-2.16-5.088-2.16h-4.272q-.624 0-.912.24-.24.24-.24.912v28.8q0 .624.24.912.288.24.912.24zm24.822-26.112q-1.488 0-2.544-1.008-1.008-1.056-1.008-2.544 0-1.536 1.008-2.544 1.056-1.008 2.544-1.008 1.536 0 2.544 1.008t1.008 2.544q0 1.488-1.008 2.544-1.008 1.008-2.544 1.008m-5.184 26.496h1.824q.432 0 .576-.144.192-.192.192-.624V21.168q0-.432-.192-.576-.144-.192-.576-.192h-1.824v-1.152h8.16V40.08q0 .432.144.624.192.144.624.144h1.824V42h-10.752zm24.38 1.728q-2.592 0-4.848-1.536-2.256-1.584-3.6-4.32t-1.344-6.096 1.344-6.096 3.6-4.272q2.256-1.584 4.848-1.584t4.848 1.584q2.256 1.536 3.6 4.272t1.344 6.096-1.344 6.096-3.6 4.32q-2.256 1.536-4.848 1.536m0-1.152q2.064 0 2.832-2.544.816-2.544.816-8.256t-.816-8.256q-.768-2.544-2.832-2.544t-2.88 2.544q-.768 2.544-.768 8.256t.768 8.256q.816 2.544 2.88 2.544m14.011-.576h1.824q.432 0 .576-.144.192-.192.192-.624V21.168q0-.432-.192-.576-.144-.192-.576-.192h-1.824v-1.152h8.16V24l.24.048q.768-2.208 2.16-3.792 1.44-1.584 3.168-1.584t2.832 1.248 1.104 3.168q0 1.776-1.008 3.072-1.008 1.248-2.496 1.248-1.296 0-2.208-.768-.912-.816-.912-1.968t1.152-2.496q.672-.768.672-1.104 0-.48-.528-.48-.96 0-1.968 1.392-.96 1.392-1.584 3.648t-.624 4.8v9.648q0 .432.144.624.192.144.624.144h1.536V42h-10.464z"/></svg>