<svg xmlns="http://www.w3.org/2000/svg" width="296" height="98" fill="none" viewBox="0 0 296 98"><path fill="#e4cda4" d="M21.662 33.72h1.24q1.32 0 2.28-.72 1-.76 1.84-1.96l5.88-8.92-6.64-12.24q-.56-1-1.4-1.52-.84-.56-2.2-.56h-.6V6.52h12.56V7.8h-.84q-.36 0-.68.32-.32.28-.32.8 0 .48.32 1.12l3.52 6.48 3.12-4.76q.64-.96.64-2.2 0-.68-.48-1.2-.44-.56-1.28-.56h-1.2V6.52h10.16V7.8h-1.2q-1.2 0-2.04.48-.8.44-1.48 1.48L37.422 18l7.32 13.6q.6 1.08 1.44 1.6.88.52 1.8.52h.8V35h-13.28v-1.28h1.32q.6 0 .92-.36.32-.4.32-1.08 0-.6-.48-1.44l-3.88-7.2-3.84 5.8q-1 1.52-1 2.52 0 .72.36 1.24t1.08.52h1.76V35h-10.4zm29.04 9.44h2.24q.36 0 .48-.16.16-.12.16-.48V17.64q0-.36-.16-.48-.12-.16-.48-.16h-2.24v-.96h7.52v2.32h.24q.52-1.12 1.48-1.96a3.45 3.45 0 0 1 2.28-.84q2.08 0 3.72 1.44 1.64 1.4 2.56 3.72.92 2.28.92 4.8 0 2.56-.88 4.84t-2.48 3.72q-1.6 1.4-3.68 1.4a3.67 3.67 0 0 1-2.28-.76q-1-.76-1.64-2.08l-.24.08v9.8q0 .36.12.48.16.16.52.16h2.24v.96h-10.4zm10.96-8.96q2.64 0 2.64-8.68t-2.64-8.68q-.92 0-1.72 1.16-.76 1.12-1.24 3.08t-.48 4.32q0 2.88.56 4.88t1.36 2.96 1.52.96m11.278-.16h1.52q.36 0 .48-.12.16-.16.16-.52V17.64q0-.36-.16-.48-.12-.16-.48-.16h-1.52v-.96h8.72V17h-1.28q-.36 0-.52.16-.12.12-.12.48v12.64l6.08-11.92v-.72q0-.36-.16-.48-.12-.16-.48-.16H83.9v-.96h8.72V17H91.1q-.36 0-.52.16-.12.12-.12.48V33.4q0 .36.12.52.16.12.52.12h1.52V35H83.9v-.96h1.28q.36 0 .48-.12.16-.16.16-.52V20.76l-6.08 11.92v.72q0 .36.12.52.16.12.52.12h1.28V35h-8.72zm31.73 1.44q-2.48 0-4.44-1.32-1.92-1.36-3-3.64t-1.08-5 1.04-5q1.08-2.28 3-3.6 1.96-1.36 4.4-1.36 1.92 0 3.2.8 1.32.8 1.96 2.04t.64 2.56q0 1.44-.88 2.52-.88 1.04-2.12 1.04-.92 0-1.52-.52-.6-.56-.6-1.48 0-1.08 1.28-2.12.96-.8.96-1.64t-.64-1.52q-.6-.72-1.96-.72-1.88 0-2.76 2.4-.88 2.36-.88 6.6 0 2.12.08 3.32.081 1.16.36 2.2.36 1.48 1.36 2.36 1.041.88 2.4.88 1.96 0 3.16-1.72t1.44-4.04h1.04q-.24 2.76-1.8 4.88-1.56 2.08-4.64 2.08m12.751-1.44h2.24q.36 0 .48-.12.16-.16.16-.52V17.64q0-.4-.16-.52-.12-.12-.48-.12-.88 0-1.72 1a8.4 8.4 0 0 0-1.32 2.24 20 20 0 0 0-.84 2.4q-.24 1.04-.28 1.32h-1.12l.24-7.92h16l.24 7.92h-1.12q-.04-.28-.32-1.32-.24-1.04-.8-2.4-.52-1.28-1.36-2.24-.8-1-1.68-1-.36 0-.52.12-.12.12-.12.52V33.4q0 .36.12.52.16.12.52.12h2.24V35h-10.4zm16.495 0h1.52q.36 0 .48-.12.16-.16.16-.52V17.64q0-.36-.16-.48-.12-.16-.48-.16h-1.52v-.96h8.72V17h-1.28q-.36 0-.52.16-.12.12-.12.48v12.64l6.08-11.92v-.72q0-.36-.16-.48-.12-.16-.48-.16h-1.28v-.96h8.72V17h-1.52q-.36 0-.52.16-.12.12-.12.48V33.4q0 .36.12.52.16.12.52.12h1.52V35h-8.72v-.96h1.28q.36 0 .48-.12.16-.16.16-.52V20.76l-6.08 11.92v.72q0 .36.12.52.16.12.52.12h1.28V35h-8.72zm28.411 1.44q-2.2 0-3.76-1.08-1.52-1.08-1.52-3.64 0-2.6 1.88-4.08 1.92-1.52 4.84-2.52l2.96-1.04V20.4q0-2.04-.84-2.96t-2.16-.92q-1.12 0-1.96.52-.8.48-.8 1.36 0 .24.12.6.16.32.52.56.6.36.84.76.28.4.28 1.04 0 .96-.72 1.52a2.44 2.44 0 0 1-1.52.52 2.6 2.6 0 0 1-1.8-.68q-.72-.72-.72-2.04 0-1.52.92-2.68.92-1.2 2.36-1.8a7.1 7.1 0 0 1 2.92-.64q2.88 0 5.04 1.56 2.16 1.52 2.16 4.88v10.12q0 1.44.8 1.44.72 0 1.08-1.2t.36-2.76h1.12q0 2.92-.88 4.28-.44.72-1.24 1.16t-1.84.44q-1.64 0-2.48-.48-.84-.52-1.4-1.68h-.08q-1.6 2.16-4.48 2.16m1.96-1.6q1.56 0 2.44-1.76V24.2l-2.24.8q-1.32.48-1.96 1.84-.6 1.32-.6 3.56 0 1.96.72 2.72t1.64.76m12.833.16h1.52q.36 0 .48-.12.16-.16.16-.52V17.64q0-.36-.16-.48-.12-.16-.48-.16h-1.52v-.96h8.72V17h-1.28q-.36 0-.52.16-.12.12-.12.48v6.88h5.84v-6.88q0-.36-.16-.48-.12-.16-.48-.16h-1.28v-.96h8.72V17h-1.52q-.36 0-.52.16-.12.12-.12.48V33.4q0 .36.12.52.16.12.52.12h1.52V35h-8.72v-.96h1.28q.36 0 .48-.12.16-.16.16-.52v-7.76h-5.84v7.76q0 .36.12.52.16.12.52.12h1.28V35h-8.72zm31.496 1.44q-2.481 0-4.44-1.32-1.92-1.36-3-3.64t-1.08-5 1.04-5q1.08-2.28 3-3.6 1.96-1.36 4.4-1.36 1.92 0 3.2.8 1.32.8 1.96 2.04t.64 2.56q0 1.44-.88 2.52-.88 1.04-2.12 1.04-.92 0-1.52-.52-.6-.56-.6-1.48 0-1.08 1.28-2.12.96-.8.96-1.64t-.64-1.52q-.6-.72-1.96-.72-1.881 0-2.76 2.4-.88 2.36-.88 6.6 0 2.12.08 3.32.08 1.16.36 2.2.36 1.48 1.36 2.36 1.04.88 2.4.88 1.96 0 3.16-1.72t1.44-4.04h1.04q-.24 2.76-1.8 4.88-1.56 2.08-4.64 2.08m12.751-1.44h2.24q.36 0 .48-.12.16-.16.16-.52V17.64q0-.4-.16-.52-.12-.12-.48-.12-.88 0-1.72 1a8.4 8.4 0 0 0-1.32 2.24 20 20 0 0 0-.84 2.4q-.24 1.04-.28 1.32h-1.12l.24-7.92h16l.24 7.92h-1.12q-.04-.28-.32-1.32-.24-1.04-.8-2.4a7.9 7.9 0 0 0-1.36-2.24q-.801-1-1.68-1-.36 0-.52.12-.12.12-.12.52V33.4q0 .36.12.52.16.12.52.12h2.24V35h-10.4zm16.495 0h1.52q.36 0 .48-.12.16-.16.16-.52V17.64q0-.36-.16-.48-.12-.16-.48-.16h-1.52v-.96h9.64q2.68 0 4.24 1.24 1.6 1.2 1.6 3.32 0 1.8-1.4 2.88-1.401 1.04-3.48 1.32v.16q2.76.2 4.4 1.52t1.64 3.6q0 2.12-1.68 3.52t-4.12 1.4h-10.84zm8.68-9.52q1.2 0 1.68-1 .48-1.04.48-2.8 0-1.8-.56-2.76t-1.6-.96h-1.24q-.36 0-.52.16-.12.12-.12.48v6.88zm.28 9.52q1.24 0 1.88-1.2.68-1.24.68-3.12 0-1.84-.64-2.96t-1.92-1.12h-2.16v7.76q0 .36.12.52.16.12.52.12zm19.52 1.44q-2.16 0-4.04-1.28-1.881-1.32-3-3.6-1.12-2.28-1.12-5.08t1.12-5.08 3-3.56q1.88-1.32 4.04-1.32t4.04 1.32q1.88 1.28 3 3.56t1.12 5.08-1.12 5.08-3 3.6q-1.88 1.28-4.04 1.28m0-.96q1.72 0 2.36-2.12.68-2.12.68-6.88t-.68-6.88q-.64-2.12-2.36-2.12t-2.4 2.12q-.64 2.12-.64 6.88t.64 6.88q.68 2.12 2.4 2.12"/></svg>