<svg xmlns="http://www.w3.org/2000/svg" width="426" height="59" fill="none" viewBox="0 0 426 59"><path fill="#e4cda4" d="M117.843 40.464h3.36q.672 0 .912-.24.24-.288.24-.912v-28.8q0-.672-.24-.912t-.912-.24h-3.36V7.824h17.088q3.36 0 5.952 1.152 2.64 1.104 4.08 3.168 1.488 2.016 1.488 4.608 0 2.64-1.488 4.704-1.44 2.064-4.08 3.264-2.592 1.152-5.952 1.152h-5.472v13.44q0 .624.24.912.288.24.912.24h4.224V42h-16.992zm16.368-16.128q2.496 0 3.504-2.016 1.056-2.016 1.056-5.568 0-3.504-1.008-5.424-1.008-1.968-3.552-1.968h-3.6q-.624 0-.912.24-.24.24-.24.912v13.824zm21.463-9.984q-1.488 0-2.544-1.008-1.008-1.056-1.008-2.544 0-1.536 1.008-2.544 1.056-1.008 2.544-1.008 1.536 0 2.544 1.008t1.008 2.544q0 1.488-1.008 2.544-1.008 1.008-2.544 1.008m-5.184 26.496h1.824q.432 0 .576-.144.192-.192.192-.624V21.168q0-.432-.192-.576-.144-.192-.576-.192h-1.824v-1.152h8.16V40.08q0 .432.144.624.192.144.624.144h1.824V42H150.49zm14.203 0h1.824q.432 0 .576-.144.192-.192.192-.624V21.168q0-.432-.192-.576-.144-.192-.576-.192h-1.824v-1.152h8.16v4.272l.24.048q.96-2.256 2.448-3.552 1.536-1.344 3.504-1.344 1.2 0 2.064.288.864.24 1.632.768 1.2.864 1.872 2.4.72 1.536.72 3.168V40.08q0 .432.144.624.192.144.624.144h1.824V42h-10.464v-1.152h1.536q.432 0 .576-.144.192-.192.192-.624V23.904q0-3.696-2.208-3.696-1.008 0-2.112 1.344t-1.872 3.552q-.72 2.208-.72 4.704V40.08q0 .432.144.624.192.144.624.144h1.536V42h-10.464zm34.928 1.728q-3.024 0-4.704-1.536-1.632-1.584-1.632-4.416V20.592h-2.88v-1.344q2.832-.384 4.464-2.352 1.68-1.968 1.68-5.136v-1.728h2.304v9.216h4.896v1.344h-4.896V36.96q0 1.584.432 2.544t1.776.96q2.016 0 2.688-2.736.672-2.784.672-6.192h1.344q0 2.736-.384 5.04-.336 2.304-1.104 3.552-1.536 2.448-4.656 2.448m19.837 0q-2.976 0-5.328-1.584-2.304-1.632-3.6-4.368t-1.296-6q0-3.36 1.296-6.096t3.504-4.272q2.256-1.584 4.896-1.584 2.928 0 5.04 2.112 2.112 2.064 2.784 5.472.336 1.536.336 4.8h-11.712q0 2.304.096 3.648.096 1.296.432 2.544.432 1.776 1.632 2.832a4.33 4.33 0 0 0 2.88 1.056q2.352 0 3.792-2.064t1.728-4.848h1.248q-.288 3.312-2.16 5.856-1.872 2.496-5.568 2.496m2.064-12.864q0-5.04-.672-7.44-.624-2.448-2.4-2.448t-2.448 2.448q-.624 2.4-.624 7.44zm9.968 11.136h1.824q.432 0 .576-.144.192-.192.192-.624V21.168q0-.432-.192-.576-.144-.192-.576-.192h-1.824v-1.152h8.16V24l.24.048q.768-2.208 2.16-3.792 1.44-1.584 3.168-1.584t2.832 1.248 1.104 3.168q0 1.776-1.008 3.072-1.008 1.248-2.496 1.248-1.296 0-2.208-.768-.912-.816-.912-1.968t1.152-2.496q.672-.768.672-1.104 0-.48-.528-.48-.96 0-1.968 1.392-.96 1.392-1.584 3.648t-.624 4.8v9.648q0 .432.144.624.192.144.624.144h1.536V42H231.49zm31.421 1.728q-2.976 0-5.328-1.584-2.304-1.632-3.6-4.368t-1.296-6q0-3.36 1.296-6.096t3.504-4.272q2.256-1.584 4.896-1.584 2.928 0 5.04 2.112 2.112 2.064 2.784 5.472.336 1.536.336 4.8h-11.712q0 2.304.096 3.648.096 1.296.432 2.544.432 1.776 1.632 2.832a4.33 4.33 0 0 0 2.88 1.056q2.352 0 3.792-2.064t1.728-4.848h1.248q-.288 3.312-2.16 5.856-1.872 2.496-5.568 2.496m2.064-12.864q0-5.04-.672-7.44-.624-2.448-2.4-2.448t-2.448 2.448q-.624 2.4-.624 7.44zm10.832 3.36h1.056l2.16 3.792q2.592 4.56 6.528 4.56 1.776 0 2.64-.864.864-.912.864-2.016 0-.96-.528-1.632-.48-.72-1.728-1.44-1.2-.768-3.744-2.016-3.072-1.488-5.184-3.36-2.064-1.872-2.064-4.896 0-2.976 1.872-4.752t4.56-1.776q2.256 0 4.8 1.632.912.576 1.44.576.576 0 .768-.768l.288-.96h.864v7.68h-1.056l-.912-1.824q-1.296-2.592-2.976-3.888t-3.408-1.296q-1.296 0-2.16.624-.816.624-.816 2.016 0 2.832 5.088 5.232 3.12 1.488 4.752 2.64 1.68 1.152 2.448 2.496t.768 3.312q0 2.976-1.92 4.704-1.872 1.728-4.704 1.728-2.4 0-4.992-1.536-1.152-.768-1.728-.768-.624 0-1.104.384-.48.336-.672.912l-.336 1.008h-.864zm28.017 9.504q-3.024 0-4.704-1.536-1.632-1.584-1.632-4.416V20.592h-2.88v-1.344q2.832-.384 4.464-2.352 1.68-1.968 1.68-5.136v-1.728h2.304v9.216h4.896v1.344h-4.896V36.96q0 1.584.432 2.544t1.776.96q2.016 0 2.688-2.736.672-2.784.672-6.192h1.344q0 2.736-.384 5.04-.336 2.304-1.104 3.552-1.536 2.448-4.656 2.448"/></svg>