<svg xmlns="http://www.w3.org/2000/svg" width="296" height="98" fill="none" viewBox="0 0 296 98"><path fill="#e4cda4" d="M23.181 35.72q-3.72 0-6.36-2.08-2.6-2.12-3.92-5.52-1.32-3.44-1.32-7.36 0-4.04 1.36-7.44 1.36-3.44 3.88-5.48 2.56-2.04 5.96-2.04 1.48 0 2.72.52 1.28.48 2.68 1.44.92.6 1.36.6a.8.8 0 0 0 .52-.16q.201-.2.36-.6l.72-1.48h1.32V18.4h-1.28q-.92-5.16-3.2-8.24-2.24-3.08-5.2-3.08-1.88 0-3.16 1.84-1.24 1.84-1.24 5.84v12q0 3.96 1.4 5.84 1.44 1.84 3.4 1.84 4.761 0 7.08-4.36 1.161-2.12 1.56-6.08h1.44a21 21 0 0 1-.56 3.56q-.399 1.76-1.08 3.08-1.24 2.4-3.4 3.76-2.12 1.32-5.04 1.32m28.607-.24q-1.96 0-3.12-1-1.16-1.04-1.16-3v-3.16q0-1.12-.52-1.76-.52-.68-1.32-.68h-2.08v7.52q0 .36.12.52.16.12.52.12h1.28V35h-8.72v-.96h1.52q.36 0 .48-.12.16-.16.16-.52V17.64q0-.36-.16-.48-.12-.16-.48-.16h-1.52v-.96h8.72V17h-1.28q-.36 0-.52.16-.12.12-.12.48v7.12h2.52q.84 0 1.24-.64t.4-1.68v-2.72q0-2 1.04-3.08 1.08-1.08 2.56-1.08 1.44 0 2.28.84t.84 2.24a2.5 2.5 0 0 1-.8 1.88q-.76.72-1.68.72-.88 0-1.48-.48-.6-.52-.6-1.4 0-.52.4-1.12.32-.44.32-.72 0-.36-.4-.36-.561 0-.96.64-.4.6-.4 1.88v2.76q0 .92-.24 1.52-.24.56-.84.96v.2q2.08.28 3.2 1.44 1.16 1.16 1.16 3.56v2.6q0 1.08.88 1.08.72 0 1.04-1.08.32-1.12.32-2.76h1.04q0 2.64-.8 4.08-.76 1.44-2.84 1.44m11.574 0q-2.2 0-3.76-1.08-1.52-1.08-1.52-3.64 0-2.6 1.88-4.08 1.92-1.52 4.84-2.52l2.96-1.04V20.4q0-2.04-.84-2.96t-2.16-.92q-1.12 0-1.96.52-.8.48-.8 1.36 0 .24.12.6.16.32.52.56.6.36.84.76.28.4.28 1.04 0 .96-.72 1.52a2.44 2.44 0 0 1-1.52.52 2.6 2.6 0 0 1-1.8-.68q-.72-.72-.72-2.04 0-1.52.92-2.68.92-1.2 2.36-1.8a7.1 7.1 0 0 1 2.92-.64q2.88 0 5.04 1.56 2.16 1.52 2.16 4.88v10.12q0 1.44.8 1.44.72 0 1.08-1.2t.36-2.76h1.12q0 2.92-.88 4.28-.44.72-1.24 1.16t-1.84.44q-1.64 0-2.48-.48-.84-.52-1.4-1.68h-.08q-1.6 2.16-4.48 2.16m1.96-1.6q1.56 0 2.44-1.76V24.2l-2.24.8q-1.32.48-1.96 1.84-.6 1.32-.6 3.56 0 1.96.72 2.72t1.64.76m12.833.16h1.52q.36 0 .48-.12.16-.16.16-.52V17.64q0-.36-.16-.48-.12-.16-.48-.16h-1.52v-.96h8.72V17h-1.28q-.36 0-.52.16-.12.12-.12.48v6.88h5.84v-6.88q0-.36-.16-.48-.12-.16-.48-.16h-1.28v-.96h8.72V17h-1.52q-.36 0-.52.16-.12.12-.12.48V33.4q0 .36.12.52.16.12.52.12h1.52V35h-8.72v-.96h1.28q.36 0 .48-.12.16-.16.16-.52v-7.76h-5.84v7.76q0 .36.12.52.16.12.52.12h1.28V35h-8.72zm22.016.16h1.36q.92 0 1.32-.32.4-.36.68-1.12 1.04-3.04 1.6-6.72t.56-7.44q0-.64-.32-1.12-.28-.48-.88-.48h-1.36v-.96h14.8V17h-1.92q-.36 0-.52.16-.12.12-.12.48v15.12q0 .72.28 1.08.32.36 1 .36h2.16l.24 7.04h-1.12q-.04-.28-.32-1.32a10.6 10.6 0 0 0-.72-1.88q-.64-1.32-1.48-2.2-.84-.84-2.24-.84h-7.36q-1.4 0-2.24.84-.84.88-1.48 2.2a12 12 0 0 0-.72 1.92q-.28 1-.32 1.28h-1.12zm9.92-.16q.64 0 .64-.72V17.64q0-.36-.16-.48-.12-.16-.48-.16h-.84q-1.36 0-1.88 1-.48 1-.56 2.68-.08 2.44-.56 5.44-.44 3-.96 4.96-.4 1.44-.4 2.16 0 .36.28.6.28.2.6.2zm11.423 0h1.52q.36 0 .48-.12.16-.16.16-.52V17.64q0-.36-.16-.48-.12-.16-.48-.16h-1.52v-.96h8.72V17h-1.28q-.36 0-.52.16-.12.12-.12.48v12.64l6.08-11.92v-.72q0-.36-.16-.48-.12-.16-.48-.16h-1.28v-.96h8.72V17h-1.52q-.36 0-.52.16-.12.12-.12.48V33.4q0 .36.12.52.16.12.52.12h1.52V35h-8.72v-.96h1.28q.36 0 .48-.12.16-.16.16-.52V20.76l-6.08 11.92v.72q0 .36.12.52.16.12.52.12h1.28V35h-8.72zm22.891 0h1.52q.36 0 .48-.12.16-.16.16-.52V17.64q0-.36-.16-.48-.12-.16-.48-.16h-1.52v-.96h8.72V17h-1.28q-.36 0-.52.16-.12.12-.12.48v6.88h5.84v-6.88q0-.36-.16-.48-.12-.16-.48-.16h-1.28v-.96h8.72V17h-1.52q-.36 0-.52.16-.12.12-.12.48V33.4q0 .36.12.52.16.12.52.12h1.52V35h-8.72v-.96h1.28q.36 0 .48-.12.16-.16.16-.52v-7.76h-5.84v7.76q0 .36.12.52.16.12.52.12h1.28V35h-8.72zm28.176 1.44q-2.2 0-3.76-1.08-1.52-1.08-1.52-3.64 0-2.6 1.88-4.08 1.92-1.52 4.84-2.52l2.96-1.04V20.4q0-2.04-.84-2.96t-2.16-.92q-1.12 0-1.96.52-.8.48-.8 1.36 0 .24.12.6.16.32.52.56.6.36.84.76.28.4.28 1.04 0 .96-.72 1.52a2.44 2.44 0 0 1-1.52.52 2.6 2.6 0 0 1-1.8-.68q-.72-.72-.72-2.04 0-1.52.92-2.68.92-1.2 2.36-1.8a7.1 7.1 0 0 1 2.92-.64q2.88 0 5.04 1.56 2.16 1.52 2.16 4.88v10.12q0 1.44.8 1.44.72 0 1.08-1.2t.36-2.76h1.12q0 2.92-.88 4.28-.44.72-1.24 1.16t-1.84.44q-1.64 0-2.48-.48-.84-.52-1.4-1.68h-.08q-1.6 2.16-4.48 2.16m1.96-1.6q1.56 0 2.44-1.76V24.2l-2.24.8q-1.32.48-1.96 1.84-.6 1.32-.6 3.56 0 1.96.72 2.72t1.64.76m12.832.16h1.52q.36 0 .48-.12.16-.16.16-.52V17.64q0-.36-.16-.48-.12-.16-.48-.16h-1.52v-.96h9.64q2.68 0 4.24 1.24 1.6 1.2 1.6 3.32 0 1.8-1.4 2.88-1.4 1.04-3.48 1.32v.16q2.76.2 4.4 1.52t1.64 3.6q0 2.12-1.68 3.52t-4.12 1.4h-10.84zm8.68-9.52q1.2 0 1.68-1 .48-1.04.48-2.8 0-1.8-.56-2.76t-1.6-.96h-1.24q-.36 0-.52.16-.12.12-.12.48v6.88zm.28 9.52q1.24 0 1.88-1.2.68-1.24.68-3.12 0-1.84-.64-2.96-.639-1.12-1.92-1.12h-2.16v7.76q0 .36.12.52.16.12.52.12zm19.88 1.44q-2.48 0-4.44-1.32-1.92-1.36-3-3.64t-1.08-5 1.04-5q1.08-2.28 3-3.6 1.96-1.36 4.4-1.36 1.92 0 3.2.8 1.32.8 1.96 2.04t.64 2.56q0 1.44-.88 2.52-.88 1.04-2.12 1.04-.92 0-1.52-.52-.6-.56-.6-1.48 0-1.08 1.28-2.12.96-.8.96-1.64t-.64-1.52q-.6-.72-1.96-.72-1.88 0-2.76 2.4-.88 2.36-.88 6.6 0 2.12.08 3.32.081 1.16.36 2.2.36 1.48 1.36 2.36 1.041.88 2.4.88 1.96 0 3.16-1.72t1.44-4.04h1.04q-.24 2.76-1.8 4.88-1.56 2.08-4.64 2.08m24.871 0q-1.959 0-3.12-1-1.16-1.04-1.16-3v-3.16q0-1.12-.52-1.76-.519-.68-1.32-.68h-2.08v7.52q0 .36.12.52.16.12.52.12h1.28V35h-8.72v-.96h1.52q.36 0 .48-.12.16-.16.16-.52V17.64q0-.36-.16-.48-.12-.16-.48-.16h-1.52v-.96h8.72V17h-1.28q-.36 0-.52.16-.12.12-.12.48v7.12h2.52q.84 0 1.24-.64t.4-1.68v-2.72q0-2 1.04-3.08 1.08-1.08 2.56-1.08 1.44 0 2.28.84t.84 2.24q0 1.12-.8 1.88-.759.72-1.68.72-.88 0-1.48-.48-.6-.52-.6-1.4 0-.52.4-1.12.32-.44.32-.72 0-.36-.4-.36-.56 0-.96.64-.4.6-.4 1.88v2.76q0 .92-.24 1.52-.24.56-.84.96v.2q2.08.28 3.2 1.44 1.16 1.16 1.16 3.56v2.6q0 1.08.88 1.08.72 0 1.04-1.08.32-1.12.32-2.76h1.04q0 2.64-.8 4.08-.76 1.44-2.84 1.44m11.575 0q-2.2 0-3.76-1.08-1.52-1.08-1.52-3.64 0-2.6 1.88-4.08 1.92-1.52 4.84-2.52l2.96-1.04V20.4q0-2.04-.84-2.96t-2.16-.92q-1.12 0-1.96.52-.8.48-.8 1.36 0 .24.12.6.16.32.52.56.6.36.84.76.28.4.28 1.04 0 .96-.72 1.52a2.44 2.44 0 0 1-1.52.52 2.6 2.6 0 0 1-1.8-.68q-.72-.72-.72-2.04 0-1.52.92-2.68.92-1.2 2.36-1.8a7.1 7.1 0 0 1 2.92-.64q2.88 0 5.04 1.56 2.16 1.52 2.16 4.88v10.12q0 1.44.8 1.44.72 0 1.08-1.2t.36-2.76h1.12q0 2.92-.88 4.28-.44.72-1.24 1.16t-1.84.44q-1.64 0-2.48-.48-.84-.52-1.4-1.68h-.08q-1.6 2.16-4.48 2.16m1.96-1.6q1.56 0 2.44-1.76V24.2l-2.24.8q-1.32.48-1.96 1.84-.6 1.32-.6 3.56 0 1.96.72 2.72t1.64.76m15.673 1.84q-2.08 0-2.88-1.44-.76-1.44-.76-4.08h1.04q0 1.64.32 2.76.32 1.08 1.04 1.08.88 0 .88-1.08v-2.44q0-2.28 1.2-3.36 1.239-1.08 3.36-1.4v-.2q-5.28-.88-5.28-4.6 0-2.24 1.84-3.56 1.88-1.36 5.08-1.36h9.24V17h-1.28q-.36 0-.52.16-.12.12-.12.48V33.4q0 .36.12.52.16.12.52.12h1.52V35h-8.96v-.96h1.52q.36 0 .48-.12.16-.16.16-.52v-7.52h-1.56q-2.68 0-2.68 2.8v3.04q0 1.96-1.16 3-1.161 1-3.12 1m8.52-10.8v-7.28q0-.36-.16-.48-.12-.16-.52-.16h-1.44q-1.48 0-2.08 1.08-.6 1.04-.6 2.88 0 3.96 2.68 3.96zM53.73 70.24h-.2v10.24q0 1.24.68 1.92.68.64 1.88.64V84h-6.24v-.96q1.2 0 1.88-.64.68-.68.68-1.92V66.64q0-.36-.16-.48-.12-.16-.48-.16h-1.92v-.96h6.6l5.08 12.6 3.8-12.6h7.12V66h-1.52q-.36 0-.52.16-.12.12-.12.48V82.4q0 .36.12.52.16.12.52.12h1.52V84h-8.96v-.96h1.52q.36 0 .48-.12.16-.16.16-.52V67.92l-4.96 16.44h-1.28zm21.905 12.8h1.52q.36 0 .48-.12.16-.16.16-.52V66.64q0-.36-.16-.48-.12-.16-.48-.16h-1.52v-.96h8.72V66h-1.28q-.36 0-.52.16-.12.12-.12.48v12.64l6.08-11.92v-.72q0-.36-.16-.48-.12-.16-.48-.16h-1.28v-.96h8.72V66h-1.52q-.36 0-.52.16-.12.12-.12.48V82.4q0 .36.12.52.16.12.52.12h1.52V84h-8.72v-.96h1.28q.36 0 .48-.12.16-.16.16-.52V69.76l-6.08 11.92v.72q0 .36.12.52.16.12.52.12h1.28V84h-8.72zm31.131 9.84q1.04-.8 1.48-1.72.48-.92.56-1.92.12-.96.12-2.64v-4.56h-.08a3.45 3.45 0 0 1-1.32 1.76q-.92.68-2.2.68-2 0-3.52-1.36-1.48-1.36-2.28-3.64-.76-2.28-.76-4.96t.76-4.96q.8-2.28 2.28-3.64 1.52-1.36 3.52-1.36 1.16 0 2.08.88.96.84 1.44 2.04h.08v-4.12q0-1.68-.12-2.64a4.9 4.9 0 0 0-.56-1.88q-.44-.92-1.48-1.72l.44-.64q1.56.8 2.68 2.4t1.36 3.2q.24-1.6 1.36-3.2t2.68-2.4l.44.64q-1 .8-1.48 1.72t-.6 1.88q-.08.96-.08 2.64v4.12h.08q.48-1.2 1.4-2.04.96-.88 2.12-.88 2 0 3.48 1.36 1.52 1.36 2.28 3.64.8 2.28.8 4.96t-.8 4.96q-.76 2.28-2.28 3.64-1.48 1.36-3.48 1.36-1.28 0-2.24-.68a3.52 3.52 0 0 1-1.28-1.76h-.08v4.6q0 1.68.08 2.64.12.96.6 1.88t1.48 1.72l-.44.64q-1.56-.8-2.68-2.4t-1.36-3.2q-.24 1.6-1.36 3.2t-2.68 2.4zm-.88-9.52q1.52 0 2.28-1.92t.76-4.56v-4.76q0-1.6-.44-3.08-.44-1.52-1.16-2.44-.681-.92-1.44-.92-1.28 0-1.64 2.48-.36 2.44-.36 6.36t.36 6.4q.36 2.44 1.64 2.44m10.72 0q1.28 0 1.64-2.44.36-2.48.36-6.4t-.36-6.36q-.36-2.48-1.64-2.48-.76 0-1.48.92-.68.92-1.12 2.44-.44 1.48-.44 3.08v4.76q0 2.64.76 4.56.759 1.92 2.28 1.92m19.033 1.12q-2.16 0-4.04-1.28-1.881-1.32-3-3.6-1.12-2.28-1.12-5.08t1.12-5.08 3-3.56q1.88-1.32 4.04-1.32t4.04 1.32q1.88 1.28 3 3.56t1.12 5.08-1.12 5.08-3 3.6q-1.88 1.28-4.04 1.28m0-.96q1.72 0 2.36-2.12.68-2.12.68-6.88t-.68-6.88q-.64-2.12-2.36-2.12t-2.4 2.12q-.64 2.12-.64 6.88t.64 6.88q.68 2.12 2.4 2.12m12.823.96q-1.52 0-2.48-1a3.37 3.37 0 0 1-.92-2.36q0-1.24.8-2.08.84-.88 1.96-.88 1.08 0 1.6.64.52.6.52 1.28 0 .72-.6 1.4-.16.2-.28.4a.9.9 0 0 0-.08.4q0 .32.16.48.2.12.44.12.8 0 1.48-1.48.72-1.52.92-4.96l.32-5q.16-2.6.16-3.88 0-.68-.24-1.12-.2-.44-.88-.44h-1.48v-.96h14V66h-1.52q-.36 0-.52.16-.12.12-.12.48V82.4q0 .36.12.52.16.12.52.12h1.52V84h-8.96v-.96h1.52q.36 0 .48-.12.16-.16.16-.52V66.64q0-.36-.16-.48-.12-.16-.48-.16h-1q-.96 0-1.4.72-.44.68-.52 2.16l-.52 7.88q-.4 7.72-4.52 7.72m27.098 0q-2.16 0-4.04-1.28-1.88-1.32-3-3.6t-1.12-5.08 1.12-5.08 3-3.56q1.88-1.32 4.04-1.32t4.04 1.32q1.881 1.28 3 3.56 1.12 2.28 1.12 5.08t-1.12 5.08q-1.119 2.28-3 3.6-1.88 1.28-4.04 1.28m0-.96q1.72 0 2.36-2.12.68-2.12.68-6.88t-.68-6.88q-.64-2.12-2.36-2.12t-2.4 2.12q-.64 2.12-.64 6.88t.64 6.88q.681 2.12 2.4 2.12m11.677-.48h1.52q.36 0 .48-.12.16-.16.16-.52V66.64q0-.36-.16-.48-.12-.16-.48-.16h-1.52v-.96h14.4l.24 7.92h-1.12q0-.2-.28-1.2-.24-1-.84-2.36a7.4 7.4 0 0 0-1.6-2.36q-1-1.04-2.2-1.04h-1.16q-.36 0-.52.16-.12.12-.12.48V82.4q0 .36.12.52.16.12.52.12h1.52V84h-8.96zm17.695 0h1.52q.36 0 .48-.12.16-.16.16-.52V66.64q0-.36-.16-.48-.12-.16-.48-.16h-1.52v-.96h8.72V66h-1.28q-.36 0-.52.16-.12.12-.12.48v12.64l6.08-11.92v-.72q0-.36-.16-.48-.12-.16-.48-.16h-1.28v-.96h8.72V66h-1.52q-.36 0-.52.16-.12.12-.12.48V82.4q0 .36.12.52.16.12.52.12h1.52V84h-8.72v-.96h1.28q.36 0 .48-.12.16-.16.16-.52V69.76l-6.08 11.92v.72q0 .36.12.52.16.12.52.12h1.28V84h-8.72zm25.731 1.68q-2.08 0-2.88-1.44-.76-1.44-.76-4.08h1.04q0 1.64.32 2.76.32 1.08 1.04 1.08.88 0 .88-1.08v-2.44q0-2.28 1.2-3.36 1.239-1.08 3.36-1.4v-.2q-5.28-.88-5.28-4.6 0-2.24 1.84-3.56 1.88-1.36 5.08-1.36h9.24V66h-1.28q-.36 0-.52.16-.12.12-.12.48V82.4q0 .36.12.52.16.12.52.12h1.52V84h-8.96v-.96h1.52q.36 0 .48-.12.16-.16.16-.52v-7.52h-1.56q-2.68 0-2.68 2.8v3.04q0 1.96-1.16 3-1.161 1-3.12 1m8.52-10.8v-7.28q0-.36-.16-.48-.12-.16-.52-.16h-1.44q-1.48 0-2.08 1.08-.6 1.04-.6 2.88 0 3.96 2.68 3.96z"/></svg>